<svg xmlns="http://www.w3.org/2000/svg" viewBox="0 0 900 520"><rect width="900" height="520" fill="#f7f0e5"/><rect y="330" width="900" height="190" fill="#2f5d7c" opacity=".2"/><rect x="118" y="88" width="664" height="270" rx="18" fill="#c98256"/><rect x="150" y="124" width="600" height="214" rx="12" fill="#fffaf3" opacity=".72"/><path d="M205 338V238c0-44 31-78 69-78s69 34 69 78v100Z" fill="#74311f"/><path d="M380 338V220c0-52 31-92 70-92s70 40 70 92v118Z" fill="#74311f"/><path d="M557 338V238c0-44 31-78 69-78s69 34 69 78v100Z" fill="#74311f"/><text x="54" y="80" fill="#334c40" font-family="Georgia,serif" font-size="46" font-weight="700">Ben Youssef</text><text x="56" y="128" fill="#74311f" font-family="Arial,sans-serif" font-size="22" font-weight="700">Geometry • calligraphy • student rooms</text></svg>